<svg id="Layer_1" data-name="Layer 1" xmlns="http://www.w3.org/2000/svg" viewBox="0 0 397.91 533.12"><path d="M379.12,334.88a29.68,29.68,0,1,1-29.68-29.68A29.52,29.52,0,0,1,379.12,334.88Zm169.12-38.64s-29.12,16.8-40.88,41.44-18.48,44.8-23.52,68.32c-5.6,26.88-9.52,63.28-15.68,79-5.6,14-15.12,29.68-43.12,45.36-22.4,12.32-55.44,15.68-73.36,16.24H347.2c-17.92-.56-51-3.92-73.35-16.24C245.29,514.64,236.33,499,230.72,485,224,469.28,220.08,432.32,215,406c-4.48-23-11.76-43.68-23.52-68.32s-40.87-41.44-40.87-41.44-5-48.72,42.55-57.68c10.08-1.68,17.93-2.24,32.48,0V105.28S229.61,70.56,271,70.56c17.36,0,28,6.16,34.16,13.44V48.16s3.93-34.72,45.36-34.72c40.88,0,44.24,34.72,44.24,34.72v36.4c6.72-7.28,17.36-14,35.28-14,40.88,0,44.24,34.72,44.24,34.72V238.56c14.56-2.24,22.4-1.68,32.48,0,46.48,9,41.44,57.68,41.44,57.68ZM426.72,334.88A77.67,77.67,0,0,0,348.88,257c-43.12,0-77.28,34.72-77.28,77.84a77.67,77.67,0,0,0,77.84,77.84C392.56,412.72,426.72,377.44,426.72,334.88Z" transform="translate(-150.49 -13.44)"/></svg>