<?xml version="1.0" encoding="utf-8"?>
<!-- Generator: Adobe Illustrator 26.0.1, SVG Export Plug-In . SVG Version: 6.00 Build 0)  -->
<svg version="1.1" id="Layer_1" xmlns="http://www.w3.org/2000/svg" xmlns:xlink="http://www.w3.org/1999/xlink" x="0px" y="0px"
	 viewBox="0 0 700 700" style="enable-background:new 0 0 700 700;" xml:space="preserve">
<style type="text/css">
	.st0{display:none;}
	.st1{display:inline;}
</style>
<symbol  id="a" viewBox="-7.7 -8 15.5 16.1">
	<path d="M0.3,0.8c-1,0-1.8,0.2-2.3,0.5c-0.5,0.3-0.8,0.9-0.8,1.5c0,0.6,0.2,1.1,0.6,1.5c0.4,0.3,1,0.5,1.7,0.5c0.9,0,1.7-0.3,2.3-1
		c0.6-0.7,1-1.5,1-2.5V0.8L0.3,0.8z M7.7-1.1v8.7H2.8V5.4C2.2,6.3,1.4,7,0.6,7.4C-0.2,7.8-1.2,8-2.4,8C-4,8-5.3,7.6-6.3,6.7
		c-1-0.9-1.5-2.1-1.5-3.6c0-1.8,0.6-3.1,1.8-3.9c1.2-0.8,3.2-1.3,5.8-1.3h2.9v-0.4c0-0.8-0.3-1.3-0.9-1.7C1.3-4.6,0.3-4.8-1-4.8
		c-1.1,0-2,0.1-2.9,0.3c-0.9,0.2-1.7,0.5-2.5,0.9v-3.7c1-0.2,2.1-0.4,3.1-0.6C-2.2-8-1.1-8-0.1-8c2.8,0,4.8,0.5,6,1.6
		C7.1-5.3,7.7-3.5,7.7-1.1L7.7-1.1z"/>
</symbol>
<symbol  id="b" viewBox="-8.2 -8 16.4 16.1">
	<path d="M8.2-0.1v1.4H-3.2c0.1,1.1,0.5,2,1.2,2.6c0.7,0.6,1.7,0.9,3,0.9c1,0,2.1-0.1,3.2-0.5C5.2,4,6.3,3.6,7.5,2.9v3.8
		C6.3,7.1,5.2,7.5,4,7.7C2.9,7.9,1.7,8,0.5,8c-2.8,0-4.9-0.7-6.5-2.1C-7.5,4.5-8.2,2.6-8.2,0c0-2.5,0.8-4.5,2.3-5.9
		C-4.4-7.3-2.4-8,0.3-8C2.7-8,4.6-7.3,6-5.9C7.5-4.4,8.2-2.5,8.2-0.1L8.2-0.1z M3.2-1.7c0-0.9-0.3-1.7-0.8-2.2
		C1.8-4.5,1.1-4.8,0.3-4.8c-0.9,0-1.7,0.3-2.3,0.8s-1,1.3-1.1,2.3H3.2z"/>
</symbol>
<symbol  id="c" viewBox="-6.2 -9.8 12.4 19.7">
	<path d="M1.1-9.8v4.3h5V-2h-5v6.5c0,0.7,0.1,1.2,0.4,1.4s0.8,0.4,1.7,0.4h2.5v3.5H1.6c-1.9,0-3.3-0.4-4.1-1.2
		c-0.8-0.8-1.2-2.2-1.2-4.1V-2h-2.4v-3.5h2.4v-4.3H1.1z"/>
</symbol>
<symbol  id="d" viewBox="-5.7 -7.8 11.4 15.7">
	<path d="M5.7-3.3C5.2-3.5,4.8-3.6,4.4-3.7C4-3.8,3.6-3.9,3.1-3.9c-1.3,0-2.2,0.4-2.9,1.2c-0.7,0.8-1,2-1,3.5v7.1h-4.9V-7.5h4.9V-5
		c0.6-1,1.3-1.7,2.2-2.2c0.8-0.5,1.8-0.7,2.9-0.7c0.2,0,0.3,0,0.5,0c0.2,0,0.5,0,0.8,0.1L5.7-3.3z"/>
</symbol>
<symbol  id="e" viewBox="-8.4 -8 16.8 16.1">
	<path d="M0-4.5c-1.1,0-1.9,0.4-2.5,1.2C-3-2.6-3.3-1.5-3.3,0S-3,2.6-2.5,3.4C-1.9,4.2-1.1,4.5,0,4.5c1.1,0,1.9-0.4,2.4-1.2
		C3,2.6,3.3,1.5,3.3,0S3-2.6,2.5-3.4C1.9-4.1,1.1-4.5,0-4.5z M0-8c2.6,0,4.7,0.7,6.2,2.1C7.7-4.5,8.4-2.5,8.4,0
		c0,2.5-0.7,4.5-2.2,5.9C4.7,7.3,2.7,8,0,8c-2.6,0-4.7-0.7-6.2-2.1C-7.7,4.5-8.4,2.5-8.4,0c0-2.5,0.7-4.5,2.2-5.9
		C-4.7-7.3-2.6-8,0-8z"/>
</symbol>
<symbol  id="f" viewBox="-7.7 -7.8 15.4 15.7">
	<path d="M7.7-1.5v9.3H2.8V0.7c0-1.3,0-2.2-0.1-2.7S2.5-2.9,2.4-3.1C2.2-3.5,1.9-3.7,1.6-3.9C1.3-4.1,0.9-4.1,0.5-4.1
		c-1,0-1.8,0.4-2.4,1.2c-0.6,0.8-0.9,1.9-0.9,3.3v7.5h-4.9V-7.5h4.9v2.2c0.7-0.9,1.5-1.5,2.3-2c0.8-0.4,1.8-0.6,2.8-0.6
		c1.8,0,3.1,0.5,4,1.6C7.2-5.1,7.7-3.5,7.7-1.5L7.7-1.5z"/>
</symbol>
<symbol  id="g" viewBox="-8.7 -10.7 17.4 21.4">
	<path d="M-8.7-10.7h4.9L0.3-0.3l3.5-10.4h4.9L2.3,6.1C1.6,7.8,0.9,9,0,9.6c-0.9,0.7-2,1-3.4,1h-2.8V7.5h1.5c0.8,0,1.4-0.1,1.8-0.4
		C-2.5,6.8-2.2,6.3-2,5.6l0.1-0.4L-8.7-10.7z"/>
</symbol>
<symbol  id="h" viewBox="-2.4 -10.6 4.9 21.3">
	<path d="M-2.4-4.7h4.9v15.3h-4.9L-2.4-4.7z M-2.4-10.6h4.9v4h-4.9L-2.4-10.6z"/>
</symbol>
<symbol  id="i" viewBox="-6.9 -8 13.9 16.1">
	<path d="M5.9-7.2v3.7c-1-0.4-2.1-0.8-3-1C1.9-4.7,1-4.8,0.1-4.8c-0.9,0-1.6,0.1-2.1,0.3c-0.4,0.2-0.7,0.6-0.7,1.1
		c0,0.4,0.2,0.7,0.5,0.9c0.3,0.2,1,0.4,1.8,0.5l0.9,0.1C3.1-1.5,4.8-1,5.6-0.3c0.9,0.7,1.3,1.9,1.3,3.4c0,1.6-0.6,2.9-1.8,3.7
		C3.9,7.6,2.1,8-0.2,8c-1,0-2.1-0.1-3.2-0.2c-1.1-0.2-2.2-0.4-3.3-0.7V3.4c1,0.5,2,0.8,3,1.1c1,0.2,2.1,0.3,3.1,0.3
		c1,0,1.7-0.1,2.2-0.4C2,4.1,2.3,3.7,2.3,3.2c0-0.4-0.2-0.8-0.5-1c-0.3-0.2-1-0.4-2-0.5l-0.9-0.1c-2.2-0.3-3.7-0.8-4.6-1.5
		c-0.9-0.7-1.3-1.9-1.3-3.4c0-1.6,0.6-2.8,1.7-3.6C-4.2-7.6-2.5-8-0.2-8C0.7-8,1.7-8,2.7-7.8C3.7-7.7,4.7-7.5,5.9-7.2L5.9-7.2z"/>
</symbol>
<symbol  id="j" viewBox="-7.7 -7.9 15.4 15.7">
	<path d="M-7.7,1.5v-9.3h4.9v1.5c0,0.8,0,1.9,0,3.1c0,1.3,0,2.1,0,2.5c0,1.2,0,2.1,0.1,2.7c0.1,0.5,0.2,0.9,0.3,1.2
		c0.2,0.3,0.5,0.6,0.8,0.8c0.3,0.2,0.7,0.2,1.1,0.2c1,0,1.8-0.4,2.4-1.2c0.6-0.8,0.9-1.9,0.9-3.3v-7.6h4.9V7.5H2.8V5.2
		c-0.7,0.9-1.5,1.6-2.3,2c-0.8,0.4-1.7,0.6-2.7,0.6c-1.8,0-3.1-0.5-4-1.6C-7.2,5.1-7.7,3.6-7.7,1.5L-7.7,1.5z"/>
</symbol>
<symbol  id="k" viewBox="-7.7 -10.6 15.4 21.3">
	<path d="M7.7,1.3v9.3H2.8V3.5c0-1.3,0-2.3-0.1-2.8S2.5-0.1,2.4-0.3C2.2-0.7,1.9-0.9,1.6-1.1C1.3-1.3,0.9-1.3,0.5-1.3
		c-1,0-1.8,0.4-2.4,1.2c-0.6,0.8-0.9,1.9-0.9,3.3v7.5h-4.9v-21.3h4.9v8.2c0.7-0.9,1.5-1.5,2.3-2C0.4-4.8,1.3-5,2.3-5
		c1.8,0,3.1,0.5,4,1.6C7.2-2.3,7.7-0.8,7.7,1.3L7.7,1.3z"/>
</symbol>
<symbol  id="l" viewBox="-9.2 -10.2 18.4 20.4">
	<path d="M-1.7-1.2c1.1,0,1.9-0.2,2.4-0.6c0.5-0.4,0.7-1.1,0.7-2c0-0.9-0.2-1.6-0.7-2C0.2-6.2-0.6-6.4-1.7-6.4H-4v5.2L-1.7-1.2z
		 M-4,2.5v7.7h-5.2v-20.4h8c2.7,0,4.7,0.5,5.9,1.4C6-7.9,6.6-6.5,6.6-4.6c0,1.4-0.3,2.5-1,3.3C5-0.4,4,0.2,2.7,0.7
		c0.7,0.2,1.4,0.5,1.9,1.1c0.6,0.6,1.1,1.4,1.7,2.6l2.9,5.8H3.6L1.1,5.1c-0.5-1-1-1.7-1.5-2.1c-0.5-0.4-1.2-0.6-2-0.6L-4,2.5z"/>
</symbol>
<symbol  id="m" viewBox="-8.2 -10.8 16.4 21.7">
	<path d="M-0.1,7.3c1.1,0,1.9-0.4,2.4-1.1c0.6-0.8,0.8-1.9,0.8-3.3c0-1.5-0.3-2.6-0.8-3.3C1.8-1.3,1-1.7-0.1-1.7
		c-1.1,0-1.9,0.4-2.4,1.2C-3,0.2-3.3,1.4-3.3,2.8c0,1.4,0.3,2.6,0.8,3.3C-1.9,6.9-1.1,7.3-0.1,7.3L-0.1,7.3z M-3.3-2.6
		c0.7-0.9,1.4-1.5,2.2-2C-0.3-5,0.7-5.2,1.7-5.2c1.9,0,3.4,0.8,4.7,2.2c1.2,1.5,1.8,3.4,1.8,5.8c0,2.4-0.6,4.3-1.8,5.8
		c-1.2,1.5-2.8,2.2-4.7,2.2c-1.1,0-2-0.2-2.8-0.6c-0.8-0.4-1.6-1.1-2.2-2v2.2h-4.9v-21.3h4.9V-2.6z"/>
</symbol>
<symbol  id="n" viewBox="-8.2 -10.8 16.4 21.7">
	<path d="M3.3-2.6v-8.2h4.9v21.3H3.3V8.2c-0.7,0.9-1.4,1.6-2.2,2c-0.8,0.4-1.8,0.6-2.8,0.6c-1.9,0-3.4-0.8-4.6-2.2
		c-1.2-1.5-1.8-3.4-1.8-5.8c0-2.4,0.6-4.3,1.8-5.8c1.2-1.5,2.8-2.2,4.6-2.2c1.1,0,2,0.2,2.8,0.6C1.9-4.2,2.6-3.5,3.3-2.6L3.3-2.6z
		 M0.1,7.3c1,0,1.8-0.4,2.4-1.1C3,5.4,3.3,4.3,3.3,2.8c0-1.5-0.3-2.6-0.8-3.3C1.9-1.3,1.1-1.7,0.1-1.7c-1,0-1.8,0.4-2.4,1.2
		c-0.6,0.8-0.8,1.9-0.8,3.3c0,1.5,0.3,2.6,0.8,3.3C-1.8,6.9-1,7.3,0.1,7.3z"/>
</symbol>
<symbol  id="o" viewBox="-6.8 -8 13.5 16.1">
	<path d="M6.8-7.2v4c-0.7-0.5-1.3-0.8-2-1C4.1-4.4,3.4-4.5,2.7-4.5c-1.4,0-2.4,0.4-3.2,1.2C-1.3-2.5-1.7-1.4-1.7,0
		c0,1.4,0.4,2.5,1.1,3.3c0.8,0.8,1.8,1.2,3.2,1.2c0.8,0,1.5-0.1,2.2-0.3c0.7-0.2,1.3-0.6,1.9-1v4C6,7.5,5.2,7.7,4.4,7.8
		C3.6,8,2.9,8,2.1,8c-2.8,0-4.9-0.7-6.5-2.1C-6,4.5-6.8,2.5-6.8,0c0-2.5,0.8-4.5,2.3-5.9C-2.9-7.3-0.7-8,2.1-8C2.9-8,3.6-8,4.4-7.8
		C5.2-7.7,6-7.5,6.8-7.2L6.8-7.2z"/>
</symbol>
<symbol  id="p" viewBox="-4.1 -13.7 8.2 27.3">
	<path d="M-0.8-7.7h4.9v15c0,2.1-0.5,3.6-1.5,4.7c-1,1.1-2.4,1.6-4.3,1.6h-2.4v-3.2h0.9c0.9,0,1.6-0.2,1.9-0.6
		C-1,9.4-0.8,8.6-0.8,7.3L-0.8-7.7z M-0.8-13.7h4.9v4h-4.9L-0.8-13.7z"/>
</symbol>
<symbol  id="q" viewBox="-8.4 -10.2 16.8 20.4">
	<path d="M-8.4-10.2h8.7c2.6,0,4.6,0.6,6,1.7c1.4,1.1,2.1,2.8,2.1,4.9c0,2.1-0.7,3.8-2.1,4.9c-1.4,1.2-3.4,1.7-6,1.7h-3.5v7.1h-5.2
		V-10.2z M-3.1-6.4v5.7h2.9c1,0,1.8-0.2,2.4-0.8C2.7-1.9,3-2.6,3-3.5c0-0.9-0.3-1.6-0.8-2.1C1.6-6.1,0.8-6.4-0.2-6.4L-3.1-6.4z"/>
</symbol>
<symbol  id="r" viewBox="-9.1 -10.2 18.3 20.4">
	<path d="M-9.1-10.2h5.9l7.4,14v-14h5v20.4H3.3l-7.4-14v14h-5V-10.2z"/>
</symbol>
<symbol  id="s" viewBox="-12.3 -7.8 24.6 15.7">
	<path d="M1.9-4.9c0.6-0.9,1.3-1.7,2.2-2.2C5-7.6,5.9-7.8,6.9-7.8c1.8,0,3.1,0.5,4,1.6c0.9,1.1,1.4,2.7,1.4,4.7v9.3H7.4v-8v-0.4
		c0-0.1,0-0.3,0-0.6c0-1.1-0.2-1.9-0.5-2.3C6.6-3.9,6.1-4.1,5.4-4.1C4.5-4.1,3.8-3.8,3.2-3C2.7-2.2,2.5-1.1,2.5,0.3v7.5h-4.9v-8
		c0-1.7-0.1-2.8-0.4-3.3c-0.3-0.5-0.8-0.7-1.6-0.7c-0.9,0-1.7,0.4-2.2,1.2c-0.5,0.8-0.8,1.9-0.8,3.3v7.5h-4.9V-7.5h4.9v2.2
		c0.6-0.9,1.3-1.5,2.1-2c0.8-0.4,1.6-0.7,2.6-0.7c1.1,0,2,0.3,2.8,0.8C0.9-6.6,1.5-5.8,1.9-4.9L1.9-4.9z"/>
</symbol>
<symbol  id="t" viewBox="-5.9 -10.6 11.9 21.3">
	<path d="M5.9-10.6v3.2H3.2C2.6-7.4,2.1-7.3,1.8-7C1.5-6.8,1.4-6.4,1.4-5.7v1.1h4.2v3.5H1.4v11.8h-4.9V-1.2h-2.4v-3.5h2.4v-1.1
		c0-1.7,0.5-2.9,1.4-3.7c0.9-0.8,2.4-1.2,4.3-1.2L5.9-10.6z"/>
</symbol>
<symbol  id="u" viewBox="-2.4 -10.6 4.9 21.3">
	<path d="M-2.4-10.6h4.9v21.3h-4.9L-2.4-10.6z"/>
</symbol>
<symbol  id="v" viewBox="-10.7 -10.2 21.4 20.4">
	<path d="M4.1,6.5h-8.2l-1.3,3.7h-5.3l7.6-20.4h6.3l7.6,20.4H5.4L4.1,6.5z M-2.8,2.7h5.6L0-5.4L-2.8,2.7z"/>
</symbol>
<symbol  id="w" viewBox="-8.7 -10.6 17.4 21.2">
	<path d="M8.7,9.1c-1,0.5-2,0.9-3,1.1c-1,0.3-2.1,0.4-3.3,0.4c-3.4,0-6.1-0.9-8.1-2.8c-2-1.9-3-4.5-3-7.7c0-3.3,1-5.8,3-7.7
		c2-1.9,4.7-2.9,8.1-2.9c1.1,0,2.2,0.1,3.3,0.4c1.1,0.2,2.1,0.6,3,1.1v4.2C7.7-5.5,6.7-6,5.8-6.3c-0.9-0.3-1.9-0.5-3-0.5
		C0.9-6.8-0.6-6.2-1.6-5c-1.1,1.2-1.6,2.9-1.6,5c0,2.1,0.5,3.8,1.6,5c1.1,1.2,2.5,1.8,4.4,1.8c1.1,0,2.1-0.1,3-0.5
		C6.7,6,7.7,5.5,8.7,4.9V9.1z"/>
</symbol>
<g>
	<path d="M379.1,334.9c0,16.2-13.4,29.7-29.7,29.7c-16.2,0-29.7-13.4-29.7-29.7c0-16.2,13.4-29.7,29.7-29.7
		C365.7,305.2,379.1,318.1,379.1,334.9z M548.2,296.2c0,0-29.1,16.8-40.9,41.4c-11.8,24.6-18.5,44.8-23.5,68.3
		c-5.6,26.9-9.5,63.3-15.7,79c-5.6,14-15.1,29.7-43.1,45.4c-22.4,12.3-55.4,15.7-73.4,16.2h-2.2h-2.2c-17.9-0.6-51-3.9-73.4-16.2
		c-28.6-15.7-37.5-31.4-43.1-45.4c-6.7-15.7-10.6-52.6-15.7-79c-4.5-23-11.8-43.7-23.5-68.3c-11.8-24.6-40.9-41.4-40.9-41.4
		s-5-48.7,42.6-57.7c10.1-1.7,17.9-2.2,32.5,0V105.3c0,0,3.9-34.7,45.4-34.7c17.4,0,28,6.2,34.2,13.4V48.2c0,0,3.9-34.7,45.4-34.7
		c40.9,0,44.2,34.7,44.2,34.7v36.4c6.7-7.3,17.4-14,35.3-14c40.9,0,44.2,34.7,44.2,34.7v133.3c14.6-2.2,22.4-1.7,32.5,0
		C553.3,247.5,548.2,296.2,548.2,296.2L548.2,296.2z M426.7,334.9c0-43.1-34.7-77.8-77.8-77.8c-43.1,0-77.3,34.7-77.3,77.8
		c0,43.1,34.7,77.8,77.8,77.8C392.6,412.7,426.7,377.4,426.7,334.9z"/>
	
		<use xlink:href="#w"  width="17.4" height="21.2" x="-8.7" y="-10.6" transform="matrix(1 0 0 1 80.0786 633.8046)" style="display:none;overflow:visible;"/>
	
		<use xlink:href="#d"  width="11.4" height="15.7" x="-5.7" y="-7.8" transform="matrix(1 0 0 1 98.5973 636.1561)" style="display:none;overflow:visible;"/>
	
		<use xlink:href="#b"  width="16.4" height="16.1" x="-8.2" y="-8" transform="matrix(1 0 0 1 113.7816 636.3516)" style="display:none;overflow:visible;"/>
	
		<use xlink:href="#a"  width="15.5" height="16.1" x="-7.7" y="-8" transform="matrix(1 0 0 1 132.293 636.3515)" style="display:none;overflow:visible;"/>
	
		<use xlink:href="#c"  width="12.4" height="19.7" x="-6.2" y="-9.8" transform="matrix(1 0 0 1 148.8047 634.1721)" style="display:none;overflow:visible;"/>
	<g class="st0">
		<defs>
			<rect id="SVGID_1_" x="155.6" y="644" width="700" height="700"/>
		</defs>
		<clipPath id="SVGID_00000011727817388653906940000015999723327632845242_" class="st1">
			<use xlink:href="#SVGID_1_"  style="overflow:visible;"/>
		</clipPath>
		<g style="display:inline;clip-path:url(#SVGID_00000011727817388653906940000015999723327632845242_);">
			
				<use xlink:href="#b"  width="16.4" height="16.1" x="-8.2" y="-8" transform="matrix(1 0 0 1 165.0511 636.3516)" style="overflow:visible;"/>
		</g>
	</g>
	
		<use xlink:href="#n"  width="16.4" height="21.7" x="-8.2" y="-10.8" transform="matrix(1 0 0 1 184.0941 633.5547)" style="display:none;overflow:visible;"/>
	
		<use xlink:href="#m"  width="16.4" height="21.7" x="-8.2" y="-10.8" transform="matrix(1 0 0 1 214.9805 633.5548)" style="display:none;overflow:visible;"/>
	
		<use xlink:href="#g"  width="17.4" height="21.4" x="-8.7" y="-10.7" transform="matrix(1 0 0 1 233.5 639.3679)" style="display:none;overflow:visible;"/>
	
		<use xlink:href="#l"  width="18.4" height="20.4" x="-9.2" y="-10.2" transform="matrix(1 0 0 1 264.2422 633.7975)" style="display:none;overflow:visible;"/>
	<g class="st0">
		<defs>
			<rect id="SVGID_00000128485556410067769680000006977801041111261071_" x="274" y="644" width="700" height="700"/>
		</defs>
		<clipPath id="SVGID_00000065053246574155000800000004189696622120544158_" class="st1">
			<use xlink:href="#SVGID_00000128485556410067769680000006977801041111261071_"  style="overflow:visible;"/>
		</clipPath>
		<g style="display:inline;clip-path:url(#SVGID_00000065053246574155000800000004189696622120544158_);">
			
				<use xlink:href="#a"  width="15.5" height="16.1" x="-7.7" y="-8" transform="matrix(1 0 0 1 282.9571 636.3515)" style="overflow:visible;"/>
		</g>
	</g>
	<g class="st0">
		<defs>
			<rect id="SVGID_00000044140631515232282810000015170882729612779193_" x="292.9" y="644" width="700" height="700"/>
		</defs>
		<clipPath id="SVGID_00000060736055311801801920000001950632386341081746_" class="st1">
			<use xlink:href="#SVGID_00000044140631515232282810000015170882729612779193_"  style="overflow:visible;"/>
		</clipPath>
		<g style="display:inline;clip-path:url(#SVGID_00000060736055311801801920000001950632386341081746_);">
			
				<use xlink:href="#g"  width="17.4" height="21.4" x="-8.7" y="-10.7" transform="matrix(1 0 0 1 301.9531 639.3679)" style="overflow:visible;"/>
		</g>
	</g>
	<g class="st0">
		<defs>
			<rect id="SVGID_00000002363352925126124680000009226792065391688370_" x="311.2" y="644" width="700" height="700"/>
		</defs>
		<clipPath id="SVGID_00000168079447921544861910000012142227633737013126_" class="st1">
			<use xlink:href="#SVGID_00000002363352925126124680000009226792065391688370_"  style="overflow:visible;"/>
		</clipPath>
		<g style="display:inline;clip-path:url(#SVGID_00000168079447921544861910000012142227633737013126_);">
			
				<use xlink:href="#a"  width="15.5" height="16.1" x="-7.7" y="-8" transform="matrix(1 0 0 1 320.1016 636.3515)" style="overflow:visible;"/>
		</g>
	</g>
	
		<use xlink:href="#f"  width="15.4" height="15.7" x="-7.7" y="-7.8" transform="matrix(1 0 0 1 340.1094 636.1564)" style="display:none;overflow:visible;"/>
	
		<use xlink:href="#v"  width="21.4" height="20.4" x="-10.7" y="-10.2" transform="matrix(1 0 0 1 370.5702 633.797)" style="display:none;overflow:visible;"/>
	
		<use xlink:href="#u"  width="4.9" height="21.3" x="-2.4" y="-10.6" transform="matrix(1 0 0 1 386.2109 633.3595)" style="display:none;overflow:visible;"/>
	
		<use xlink:href="#k"  width="15.4" height="21.3" x="-7.7" y="-10.6" transform="matrix(1 0 0 1 401.0547 633.3594)" style="display:none;overflow:visible;"/>
	
		<use xlink:href="#j"  width="15.4" height="15.7" x="-7.7" y="-7.9" transform="matrix(1 0 0 1 420.8203 636.5387)" style="display:none;overflow:visible;"/>
	
		<use xlink:href="#i"  width="13.9" height="16.1" x="-6.9" y="-8" transform="matrix(1 0 0 1 439.2653 636.3517)" style="display:none;overflow:visible;"/>
	<g class="st0">
		<defs>
			<rect id="SVGID_00000004526427480484884360000003512296835506933141_" x="447.5" y="644" width="700" height="700"/>
		</defs>
		<clipPath id="SVGID_00000026864783007429311720000015008270504103544229_" class="st1">
			<use xlink:href="#SVGID_00000004526427480484884360000003512296835506933141_"  style="overflow:visible;"/>
		</clipPath>
		<g style="display:inline;clip-path:url(#SVGID_00000026864783007429311720000015008270504103544229_);">
			
				<use xlink:href="#i"  width="13.9" height="16.1" x="-6.9" y="-8" transform="matrix(1 0 0 1 455.9333 636.3517)" style="overflow:visible;"/>
		</g>
	</g>
	<g class="st0">
		<defs>
			<rect id="SVGID_00000132791862566087609070000017242197857647604111_" x="464.2" y="644" width="700" height="700"/>
		</defs>
		<clipPath id="SVGID_00000163055368922267462950000002805101147080997305_" class="st1">
			<use xlink:href="#SVGID_00000132791862566087609070000017242197857647604111_"  style="overflow:visible;"/>
		</clipPath>
		<g style="display:inline;clip-path:url(#SVGID_00000163055368922267462950000002805101147080997305_);">
			
				<use xlink:href="#a"  width="15.5" height="16.1" x="-7.7" y="-8" transform="matrix(1 0 0 1 473.1485 636.3515)" style="overflow:visible;"/>
		</g>
	</g>
	
		<use xlink:href="#h"  width="4.9" height="21.3" x="-2.4" y="-10.6" transform="matrix(1 0 0 1 487.8984 633.3596)" style="display:none;overflow:visible;"/>
	<g class="st0">
		<defs>
			<rect id="SVGID_00000066506957947919298800000005752959915664839860_" x="492.7" y="644" width="700" height="700"/>
		</defs>
		<clipPath id="SVGID_00000091707693987798030540000003112000213995024554_" class="st1">
			<use xlink:href="#SVGID_00000066506957947919298800000005752959915664839860_"  style="overflow:visible;"/>
		</clipPath>
		<g style="display:inline;clip-path:url(#SVGID_00000091707693987798030540000003112000213995024554_);">
			
				<use xlink:href="#f"  width="15.4" height="15.7" x="-7.7" y="-7.8" transform="matrix(1 0 0 1 502.75 636.1564)" style="overflow:visible;"/>
		</g>
	</g>
	<g class="st0">
		<defs>
			<rect id="SVGID_00000147219375883548952270000013285396496702494877_" x="512.6" y="644" width="700" height="700"/>
		</defs>
		<clipPath id="SVGID_00000153670498216647009920000002695319392115577777_" class="st1">
			<use xlink:href="#SVGID_00000147219375883548952270000013285396496702494877_"  style="overflow:visible;"/>
		</clipPath>
		<g style="display:inline;clip-path:url(#SVGID_00000153670498216647009920000002695319392115577777_);">
			
				<use xlink:href="#h"  width="4.9" height="21.3" x="-2.4" y="-10.6" transform="matrix(1 0 0 1 517.4297 633.3596)" style="overflow:visible;"/>
		</g>
	</g>
	
		<use xlink:href="#t"  width="11.9" height="21.3" x="-5.9" y="-10.6" transform="matrix(1 0 0 1 76.4767 661.3594)" style="display:none;overflow:visible;"/>
	<g class="st0">
		<defs>
			<rect id="SVGID_00000160156242524051933780000007413812762548050873_" x="82.2" y="672" width="700" height="700"/>
		</defs>
		<clipPath id="SVGID_00000040542261909685112660000014062913193718430086_" class="st1">
			<use xlink:href="#SVGID_00000160156242524051933780000007413812762548050873_"  style="overflow:visible;"/>
		</clipPath>
		<g style="display:inline;clip-path:url(#SVGID_00000040542261909685112660000014062913193718430086_);">
			
				<use xlink:href="#d"  width="11.4" height="15.7" x="-5.7" y="-7.8" transform="matrix(1 0 0 1 90.2301 664.1561)" style="overflow:visible;"/>
		</g>
	</g>
	
		<use xlink:href="#e"  width="16.8" height="16.1" x="-8.4" y="-8" transform="matrix(1 0 0 1 105.6094 664.351)" style="display:none;overflow:visible;"/>
	
		<use xlink:href="#s"  width="24.6" height="15.7" x="-12.3" y="-7.8" transform="matrix(1 0 0 1 129.875 664.1558)" style="display:none;overflow:visible;"/>
	<g class="st0">
		<defs>
			<rect id="SVGID_00000082359827232412399910000010448328270159498122_" x="154.2" y="672" width="700" height="700"/>
		</defs>
		<clipPath id="SVGID_00000164488287320012030150000006669509376017480853_" class="st1">
			<use xlink:href="#SVGID_00000082359827232412399910000010448328270159498122_"  style="overflow:visible;"/>
		</clipPath>
		<g style="display:inline;clip-path:url(#SVGID_00000164488287320012030150000006669509376017480853_);">
			
				<use xlink:href="#c"  width="12.4" height="19.7" x="-6.2" y="-9.8" transform="matrix(1 0 0 1 160.7148 662.1721)" style="overflow:visible;"/>
		</g>
	</g>
	<g class="st0">
		<defs>
			<rect id="SVGID_00000127766307821833812340000009860694555876572033_" x="167.5" y="672" width="700" height="700"/>
		</defs>
		<clipPath id="SVGID_00000057839190906636806810000006884549462661785527_" class="st1">
			<use xlink:href="#SVGID_00000127766307821833812340000009860694555876572033_"  style="overflow:visible;"/>
		</clipPath>
		<g style="display:inline;clip-path:url(#SVGID_00000057839190906636806810000006884549462661785527_);">
			
				<use xlink:href="#k"  width="15.4" height="21.3" x="-7.7" y="-10.6" transform="matrix(1 0 0 1 177.5899 661.3594)" style="overflow:visible;"/>
		</g>
	</g>
	<g class="st0">
		<defs>
			<rect id="SVGID_00000021800275244881821170000012677665440744147328_" x="187.5" y="672" width="700" height="700"/>
		</defs>
		<clipPath id="SVGID_00000029037414740326924640000009836864899354507440_" class="st1">
			<use xlink:href="#SVGID_00000021800275244881821170000012677665440744147328_"  style="overflow:visible;"/>
		</clipPath>
		<g style="display:inline;clip-path:url(#SVGID_00000029037414740326924640000009836864899354507440_);">
			
				<use xlink:href="#b"  width="16.4" height="16.1" x="-8.2" y="-8" transform="matrix(1 0 0 1 196.8909 664.3516)" style="overflow:visible;"/>
		</g>
	</g>
	
		<use xlink:href="#r"  width="18.3" height="20.4" x="-9.1" y="-10.2" transform="matrix(1 0 0 1 227.9258 661.797)" style="display:none;overflow:visible;"/>
	<g class="st0">
		<defs>
			<rect id="SVGID_00000076600190425457265320000017257351113858366132_" x="239.6" y="672" width="700" height="700"/>
		</defs>
		<clipPath id="SVGID_00000113346010501726009640000011439941213552333971_" class="st1">
			<use xlink:href="#SVGID_00000076600190425457265320000017257351113858366132_"  style="overflow:visible;"/>
		</clipPath>
		<g style="display:inline;clip-path:url(#SVGID_00000113346010501726009640000011439941213552333971_);">
			
				<use xlink:href="#e"  width="16.8" height="16.1" x="-8.4" y="-8" transform="matrix(1 0 0 1 249.2578 664.351)" style="overflow:visible;"/>
		</g>
	</g>
	<g class="st0">
		<defs>
			<rect id="SVGID_00000178178471071093530960000016767185153438382506_" x="258.9" y="672" width="700" height="700"/>
		</defs>
		<clipPath id="SVGID_00000129167784312085885230000008703883398373671322_" class="st1">
			<use xlink:href="#SVGID_00000178178471071093530960000016767185153438382506_"  style="overflow:visible;"/>
		</clipPath>
		<g style="display:inline;clip-path:url(#SVGID_00000129167784312085885230000008703883398373671322_);">
			
				<use xlink:href="#j"  width="15.4" height="15.7" x="-7.7" y="-7.9" transform="matrix(1 0 0 1 268.7617 664.5387)" style="overflow:visible;"/>
		</g>
	</g>
	<g class="st0">
		<defs>
			<rect id="SVGID_00000058585540616640490890000011955969871170700701_" x="278.8" y="672" width="700" height="700"/>
		</defs>
		<clipPath id="SVGID_00000136402963399577406080000000313979603520856501_" class="st1">
			<use xlink:href="#SVGID_00000058585540616640490890000011955969871170700701_"  style="overflow:visible;"/>
		</clipPath>
		<g style="display:inline;clip-path:url(#SVGID_00000136402963399577406080000000313979603520856501_);">
			
				<use xlink:href="#f"  width="15.4" height="15.7" x="-7.7" y="-7.8" transform="matrix(1 0 0 1 288.8672 664.1564)" style="overflow:visible;"/>
		</g>
	</g>
	
		<use xlink:href="#q"  width="16.8" height="20.4" x="-8.4" y="-10.2" transform="matrix(1 0 0 1 319.4688 661.7971)" style="display:none;overflow:visible;"/>
	<g class="st0">
		<defs>
			<rect id="SVGID_00000023239705470846520860000015920705327377522093_" x="329" y="672" width="700" height="700"/>
		</defs>
		<clipPath id="SVGID_00000140732924134557491520000001126021309998081410_" class="st1">
			<use xlink:href="#SVGID_00000023239705470846520860000015920705327377522093_"  style="overflow:visible;"/>
		</clipPath>
		<g style="display:inline;clip-path:url(#SVGID_00000140732924134557491520000001126021309998081410_);">
			
				<use xlink:href="#d"  width="11.4" height="15.7" x="-5.7" y="-7.8" transform="matrix(1 0 0 1 337.0622 664.1561)" style="overflow:visible;"/>
		</g>
	</g>
	<g class="st0">
		<defs>
			<rect id="SVGID_00000132067702830087939960000001508942738399154877_" x="342.8" y="672" width="700" height="700"/>
		</defs>
		<clipPath id="SVGID_00000096054116728800353690000000097403138559938750_" class="st1">
			<use xlink:href="#SVGID_00000132067702830087939960000001508942738399154877_"  style="overflow:visible;"/>
		</clipPath>
		<g style="display:inline;clip-path:url(#SVGID_00000096054116728800353690000000097403138559938750_);">
			
				<use xlink:href="#e"  width="16.8" height="16.1" x="-8.4" y="-8" transform="matrix(1 0 0 1 352.4375 664.351)" style="overflow:visible;"/>
		</g>
	</g>
	
		<use xlink:href="#p"  width="8.2" height="27.3" x="-4.1" y="-13.7" transform="matrix(1 0 0 1 365.2148 664.3832)" style="display:none;overflow:visible;"/>
	<g class="st0">
		<defs>
			<rect id="SVGID_00000124125289068108161440000004664192976168372645_" x="371.7" y="672" width="700" height="700"/>
		</defs>
		<clipPath id="SVGID_00000168834486110309210710000018033309077508833678_" class="st1">
			<use xlink:href="#SVGID_00000124125289068108161440000004664192976168372645_"  style="overflow:visible;"/>
		</clipPath>
		<g style="display:inline;clip-path:url(#SVGID_00000168834486110309210710000018033309077508833678_);">
			
				<use xlink:href="#b"  width="16.4" height="16.1" x="-8.2" y="-8" transform="matrix(1 0 0 1 381.0785 664.3516)" style="overflow:visible;"/>
		</g>
	</g>
	
		<use xlink:href="#o"  width="13.5" height="16.1" x="-6.8" y="-8" transform="matrix(1 0 0 1 398.6096 664.3519)" style="display:none;overflow:visible;"/>
	<g class="st0">
		<defs>
			<rect id="SVGID_00000039130735442654989020000003597550046511051153_" x="407.2" y="672" width="700" height="700"/>
		</defs>
		<clipPath id="SVGID_00000081630122825839035890000014882576556253367220_" class="st1">
			<use xlink:href="#SVGID_00000039130735442654989020000003597550046511051153_"  style="overflow:visible;"/>
		</clipPath>
		<g style="display:inline;clip-path:url(#SVGID_00000081630122825839035890000014882576556253367220_);">
			
				<use xlink:href="#c"  width="12.4" height="19.7" x="-6.2" y="-9.8" transform="matrix(1 0 0 1 413.8047 662.1721)" style="overflow:visible;"/>
		</g>
	</g>
</g>
</svg>
